<svg width="701" height="178" viewBox="0 0 701 178" fill="none" xmlns="http://www.w3.org/2000/svg">
<path d="M219.624 43.56V59.944H172.776V82.088H216.936V97.832H172.776V120.616H220.648V137H154.088V43.56H219.624ZM298.359 43.56V137H281.591L280.439 126.12C277.239 136.232 268.663 138.792 258.423 138.792C237.943 138.792 228.983 125.096 228.983 103.464C228.983 79.912 240.119 67.624 259.447 67.624C268.023 67.624 276.215 69.672 280.055 77.736V43.56H298.359ZM248.951 103.592C248.951 115.496 253.559 123.944 264.567 123.944C273.655 123.944 280.055 118.824 280.055 103.848V101.416C280.055 86.696 272.375 82.344 264.951 82.344C254.071 82.344 248.951 90.152 248.951 103.592ZM336.583 138.792C322.887 138.792 314.823 133.032 313.287 120.616C312.775 117.16 312.647 113.96 312.647 108.456V69.416H330.951V109.352C330.951 118.184 333.639 123.944 343.239 123.944C351.559 123.944 357.319 118.312 357.319 105.768V69.416H375.623V137H358.855L358.215 126.632C355.271 136.104 347.719 138.792 336.583 138.792ZM420.775 67.624C442.279 67.624 450.215 77.992 451.495 92.968H433.319C432.679 85.928 427.815 82.344 420.519 82.344C411.175 82.344 406.055 88.872 406.055 102.952C406.055 117.16 410.663 123.944 420.391 123.944C427.303 123.944 432.423 119.72 433.319 113.448H451.495C449.703 128.808 439.591 138.792 419.623 138.792C397.095 138.792 386.983 125.864 386.983 103.336C386.983 81.064 397.095 67.624 420.775 67.624ZM478.805 103.08C478.805 118.568 484.693 123.944 494.677 123.944C504.533 123.944 510.293 118.568 510.293 103.08C510.293 87.848 504.533 82.344 494.677 82.344C484.693 82.344 478.805 87.848 478.805 103.08ZM459.733 103.08C459.733 80.04 471.893 67.624 494.677 67.624C517.461 67.624 529.493 80.04 529.493 103.08C529.493 126.248 517.333 138.792 494.677 138.792C471.893 138.792 459.733 126.248 459.733 103.08ZM577.038 67.624C579.47 67.624 581.006 67.624 582.542 68.008V82.856C566.286 81.192 558.862 88.616 558.862 107.688V137H540.558V69.416H557.326L558.094 82.344C559.374 71.848 566.798 67.624 577.038 67.624ZM618.727 67.624C638.695 67.624 646.119 76.2 647.015 88.104C647.271 91.56 647.399 94.76 647.399 98.6V137H630.887L629.863 128.04C626.791 137.128 618.727 138.792 608.743 138.792C596.327 138.792 586.599 131.752 586.599 118.568C586.599 101.672 599.527 95.528 625.639 95.528H629.351V93.096C629.351 86.44 627.175 82.216 617.959 82.216C609.895 82.216 606.311 85.032 605.543 91.304H588.775C589.287 76.712 598.247 67.624 618.727 67.624ZM604.391 116.392C604.391 121.384 608.359 124.2 614.631 124.2C621.799 124.2 629.351 120.104 629.351 113.448V108.072C613.223 107.304 604.391 108.968 604.391 116.392ZM672.006 138.792C665.478 138.792 660.23 133.416 660.23 126.888C660.23 120.36 665.478 114.984 672.006 114.984C678.662 114.984 683.91 120.36 683.91 126.888C683.91 133.416 678.662 138.792 672.006 138.792Z" fill="#F0F3FA"/>
<path d="M113.431 45.4026C104.557 40.4985 93.7688 43.3216 89.3751 51.6975L60.1215 107.26C59.8928 107.694 59.8287 108.193 59.9234 108.685L64.8089 133.707C64.9427 134.421 65.4213 135.045 66.0579 135.396C66.6067 135.699 67.2644 135.794 67.8391 135.644C67.9376 135.618 68.0361 135.592 68.1291 135.55L82.0467 129.767C83.2065 129.285 83.6842 127.947 83.1107 126.777C82.5372 125.606 81.133 125.046 79.9732 125.528L68.8128 130.161L65.4091 112.71L89.1609 125.8C89.7097 126.103 90.3674 126.198 90.9421 126.048C91.5168 125.897 92.0141 125.517 92.2808 124.984L121.534 69.4214C123.669 65.3658 124.004 60.639 122.472 56.0975C120.94 51.5561 117.728 47.7574 113.431 45.4026ZM92.0543 56.8845L101.955 62.3408L75.2654 113.057L65.3651 107.601L92.0543 56.8845ZM89.1553 120.699L79.4746 115.363L106.164 64.6472L115.845 69.9825L89.1553 120.699ZM117.864 66.0105L94.1781 52.9565C95.8026 50.5152 98.2676 48.7639 101.223 47.9905C104.589 47.1096 108.185 47.5962 111.362 49.3341C114.54 51.0719 116.904 53.8967 118.038 57.2577C119.039 60.2252 118.962 63.2788 117.864 66.0105Z" fill="#FCA311"/>
<mask id="mask0_2_40" style="mask-type:alpha" maskUnits="userSpaceOnUse" x="0" y="13" width="89" height="135">
<rect x="24.1654" y="13" width="65.3602" height="124.177" transform="rotate(11.2216 24.1654 13)" fill="#877676"/>
</mask>
<g mask="url(#mask0_2_40)">
<path d="M126.358 65.1613C121.926 58.8899 115.259 54.6199 107.542 53.089C99.8255 51.5581 92.0066 52.9757 85.516 57.0801L82.1262 59.2237L79.7757 55.8976C75.3437 49.6262 68.6402 45.3055 60.9237 43.7745C53.2293 42.248 45.4104 43.6656 38.9461 47.7534C32.4556 51.8578 28.0818 58.1504 26.6496 65.4851C25.1953 72.8153 26.8617 80.2845 31.2937 86.5559L64.9913 134.239C65.4578 134.899 66.1733 135.347 66.9251 135.496C67.6769 135.645 68.5049 135.525 69.1881 135.093L118.613 103.967C125.104 99.8628 129.477 93.5702 130.932 86.2399C132.408 78.914 130.79 71.4327 126.358 65.1613ZM115.208 99.122L68.2794 128.669L36.2865 83.3986C32.7696 78.4221 31.4651 72.4875 32.6194 66.6694C33.7737 60.8514 37.2229 55.8599 42.3691 52.624C47.4932 49.3837 53.692 48.2558 59.7944 49.4665C65.919 50.6816 71.2398 54.0949 74.7567 59.0714L78.8119 64.8096C79.7629 66.1553 81.6422 66.5282 83.0349 65.6475L88.9211 61.9253C94.0715 58.6683 100.292 57.5449 106.395 58.7556C112.497 59.9663 117.796 63.3752 121.317 68.3307C124.834 73.3072 126.116 79.2375 124.962 85.0555C123.83 90.8779 120.358 95.8651 115.208 99.122Z" fill="#FCA311"/>
</g>
</svg>
