<svg width="158" height="149" viewBox="0 0 158 149" fill="none" xmlns="http://www.w3.org/2000/svg">
<path d="M113.431 32.4026C104.557 27.4985 93.7688 30.3216 89.3751 38.6975L60.1215 94.2598C59.8928 94.6943 59.8287 95.1928 59.9234 95.6855L64.8089 120.707C64.9427 121.421 65.4213 122.045 66.0579 122.396C66.6067 122.699 67.2644 122.794 67.8391 122.644C67.9376 122.618 68.0361 122.592 68.1291 122.55L82.0467 116.767C83.2065 116.285 83.6842 114.947 83.1107 113.777C82.5372 112.606 81.133 112.046 79.9732 112.528L68.8128 117.161L65.4091 99.7098L89.1609 112.8C89.7097 113.103 90.3674 113.198 90.9421 113.048C91.5168 112.897 92.0141 112.517 92.2808 111.984L121.534 56.4214C123.669 52.3658 124.004 47.639 122.472 43.0975C120.94 38.5561 117.728 34.7574 113.431 32.4026ZM92.0543 43.8845L101.955 49.3408L75.2654 100.057L65.3651 94.6005L92.0543 43.8845ZM89.1553 107.699L79.4746 102.363L106.164 51.6472L115.845 56.9825L89.1553 107.699ZM117.864 53.0105L94.1781 39.9565C95.8026 37.5152 98.2676 35.7639 101.223 34.9905C104.589 34.1096 108.185 34.5962 111.362 36.3341C114.54 38.0719 116.904 40.8967 118.038 44.2577C119.039 47.2252 118.962 50.2788 117.864 53.0105Z" fill="#192A4D"/>
<mask id="mask0_2_60" style="mask-type:alpha" maskUnits="userSpaceOnUse" x="0" y="0" width="89" height="135">
<rect x="24.1654" width="65.3602" height="124.177" transform="rotate(11.2216 24.1654 0)" fill="#877676"/>
</mask>
<g mask="url(#mask0_2_60)">
<path d="M126.358 52.1613C121.926 45.8899 115.259 41.62 107.542 40.089C99.8255 38.5581 92.0066 39.9757 85.516 44.0801L82.1262 46.2237L79.7757 42.8976C75.3437 36.6262 68.6402 32.3055 60.9237 30.7745C53.2293 29.248 45.4104 30.6657 38.9461 34.7534C32.4556 38.8578 28.0818 45.1504 26.6496 52.4851C25.1953 59.8153 26.8617 67.2845 31.2937 73.5559L64.9913 121.239C65.4578 121.899 66.1733 122.347 66.9251 122.496C67.6769 122.645 68.5049 122.525 69.1881 122.093L118.613 90.9672C125.104 86.8628 129.477 80.5702 130.932 73.2399C132.408 65.9141 130.79 58.4327 126.358 52.1613ZM115.208 86.122L68.2794 115.67L36.2865 70.3987C32.7696 65.4222 31.4651 59.4875 32.6194 53.6695C33.7737 47.8515 37.2229 42.8599 42.3691 39.624C47.4932 36.3837 53.692 35.2558 59.7944 36.4665C65.919 37.6816 71.2398 41.0949 74.7567 46.0714L78.8119 51.8096C79.7629 53.1553 81.6422 53.5282 83.0349 52.6475L88.9211 48.9253C94.0715 45.6684 100.292 44.5449 106.395 45.7556C112.497 46.9663 117.796 50.3752 121.317 55.3307C124.834 60.3072 126.116 66.2375 124.962 72.0555C123.83 77.8779 120.358 82.8651 115.208 86.122Z" fill="#192A4D"/>
</g>
</svg>
